<?xml version="1.0" standalone="no"?>
<!DOCTYPE svg PUBLIC "-//W3C//DTD SVG 20010904//EN"
 "http://www.w3.org/TR/2001/REC-SVG-20010904/DTD/svg10.dtd">
<svg version="1.0" xmlns="http://www.w3.org/2000/svg"
 width="250.000000pt" height="250.000000pt" viewBox="0 0 250.000000 250.000000"
 preserveAspectRatio="xMidYMid meet">
<metadata>
Created by potrace 1.11, written by Peter Selinger 2001-2013
</metadata>
<g transform="translate(0.000000,250.000000) scale(0.100000,-0.100000)"
fill="#000000" stroke="none">
<path d="M1998 1946 c-113 -31 -206 -132 -328 -361 -95 -177 -163 -251 -277
-306 -107 -51 -220 -66 -323 -44 -73 16 -223 108 -320 197 -47 43 -175 153
-228 197 -59 49 -112 71 -157 65 -70 -8 -92 -37 -126 -164 -38 -143 -81 -218
-138 -243 l-26 -11 33 -4 c41 -4 103 20 153 59 38 30 62 77 73 139 19 111 24
120 71 120 38 0 93 -35 201 -128 234 -202 308 -251 448 -296 15 -5 7 -14 -40
-49 -66 -48 -137 -117 -267 -257 -96 -104 -173 -164 -281 -217 -39 -20 -73
-37 -74 -39 -2 -1 4 -16 14 -33 14 -24 23 -30 39 -25 59 18 229 131 300 201
17 16 62 64 100 107 105 118 115 128 178 179 83 67 191 120 277 134 66 10 205
5 277 -11 195 -42 396 -166 583 -357 l95 -97 40 16 c22 8 42 17 44 18 2 2 -23
27 -55 56 -173 158 -237 236 -259 313 -25 85 -25 159 0 290 8 41 53 175 68
202 11 21 14 21 43 7 44 -21 142 -110 160 -145 l15 -29 51 33 c28 18 53 41 54
52 5 29 -23 120 -58 189 -49 98 -128 225 -149 239 -25 18 -150 20 -211 3z
m163 -45 c24 -1 209 -325 209 -367 0 -6 -7 -17 -15 -24 -12 -10 -27 1 -87 62
-67 68 -144 118 -182 118 -18 0 -36 -29 -73 -120 -28 -67 -55 -156 -70 -230
-9 -44 -6 -194 5 -232 6 -21 9 -38 7 -38 -1 0 -34 18 -71 40 -113 66 -237 108
-368 125 l-49 7 34 20 c72 43 135 124 219 283 107 201 172 285 252 326 41 21
115 37 153 33 11 -1 27 -3 36 -3z"/>
</g>
</svg>
